<svg id="svg-logo" viewBox="0 0 83 33" width="100%" height="100%">
            <path d="M79.615,21.949 C79.088,21.949 78.804,22.332 78.804,22.715 C78.804,23.558 79.939,23.538 81.034,23.922 C82.068,24.285 83.000,25.032 83.000,26.660 C83.000,28.575 81.520,29.878 79.473,29.878 C77.385,29.878 76.007,28.422 76.007,26.602 L78.135,26.602 C78.135,27.407 78.804,27.886 79.473,27.886 C80.243,27.886 80.770,27.464 80.770,26.698 C80.770,25.626 79.777,25.549 78.784,25.281 C77.770,25.013 76.676,24.266 76.676,22.715 C76.676,21.183 77.932,20.072 79.473,20.072 C80.527,20.072 81.317,20.512 81.885,21.297 L80.507,22.581 C80.344,22.198 80.021,21.949 79.615,21.949 ZM73.990,8.462 L73.990,13.747 L71.760,13.747 L71.760,4.172 L73.990,4.172 L73.990,5.168 C74.477,4.555 75.186,4.057 76.605,4.057 L76.605,6.087 L76.402,6.087 C74.984,6.087 73.990,7.044 73.990,8.462 ZM73.898,29.763 L71.669,29.763 L71.669,16.357 L73.898,16.127 L73.898,29.763 ZM67.169,16.357 L69.399,16.127 L69.399,29.763 L67.169,29.763 L67.169,16.357 ZM67.037,12.752 C66.612,13.269 65.497,13.862 64.139,13.862 C61.240,13.862 59.051,11.833 59.051,8.960 C59.051,6.087 61.240,4.057 64.139,4.057 C65.477,4.057 66.612,4.650 67.037,5.168 L67.037,4.172 L69.308,4.172 L69.308,13.747 L67.037,13.747 L67.037,12.752 ZM64.220,6.087 C62.538,6.087 61.240,7.389 61.240,8.960 C61.240,10.530 62.538,11.833 64.220,11.833 C65.862,11.833 67.119,10.530 67.119,8.960 C67.119,7.389 65.862,6.087 64.220,6.087 ZM63.480,20.187 L65.791,20.187 L62.081,28.077 L59.817,33.000 L57.501,33.000 L59.851,28.077 L56.142,20.187 L58.453,20.187 L60.967,25.760 L63.480,20.187 ZM49.566,9.687 C49.809,10.894 50.965,11.871 52.424,11.871 C53.458,11.871 54.289,11.564 54.714,10.952 L57.370,10.952 C56.681,12.694 54.714,13.863 52.424,13.863 C49.485,13.863 47.215,11.679 47.215,8.960 C47.215,6.240 49.485,4.057 52.363,4.057 C55.242,4.057 57.512,6.240 57.512,8.960 C57.512,9.209 57.492,9.457 57.451,9.687 L49.566,9.687 ZM52.363,6.010 C51.086,6.010 49.992,6.815 49.668,7.810 L55.059,7.810 C54.735,6.815 53.640,6.010 52.363,6.010 ZM41.224,18.272 C38.468,18.272 36.522,20.378 36.522,23.060 C36.522,25.741 38.468,27.847 41.224,27.847 C43.697,27.847 45.400,26.334 45.825,24.017 L41.143,24.017 L41.143,21.987 L47.933,21.987 L47.933,29.763 L45.825,29.763 L45.825,27.943 C44.711,29.246 43.028,29.878 41.224,29.878 C37.211,29.878 34.211,26.833 34.211,23.060 C34.211,19.287 37.211,16.241 41.224,16.241 C43.515,16.241 45.339,17.218 46.616,18.693 L45.035,20.187 C44.183,19.018 42.947,18.272 41.224,18.272 ZM41.153,13.747 L36.430,13.747 L36.430,0.342 L41.052,0.342 C43.403,0.342 44.821,1.759 44.821,3.808 C44.821,4.881 44.173,5.742 43.504,6.106 C44.599,6.623 45.693,7.868 45.693,9.496 C45.693,11.947 43.646,13.747 41.153,13.747 ZM41.052,2.371 L38.700,2.371 L38.700,5.245 L41.052,5.245 C42.024,5.245 42.592,4.689 42.592,3.808 C42.592,2.927 42.024,2.371 41.052,2.371 ZM41.052,7.274 L38.700,7.274 L38.700,11.718 L41.052,11.718 C42.531,11.718 43.423,10.817 43.423,9.496 C43.423,8.174 42.531,7.274 41.052,7.274 ZM23.254,29.718 L15.354,17.932 L7.657,29.718 L0.000,29.718 L20.507,-0.000 L24.017,5.095 L19.049,12.456 L30.911,29.718 L23.254,29.718 ZM6.639,5.717 L10.176,0.059 L14.000,5.566 L10.045,11.089 L6.639,5.717 ZM52.393,21.183 C52.880,20.570 53.589,20.072 55.008,20.072 L55.008,22.102 L54.806,22.102 C53.387,22.102 52.393,23.059 52.393,24.477 L52.393,29.762 L50.164,29.762 L50.164,20.187 L52.393,20.187 L52.393,21.183 Z"></path>
</svg>